<svg width="32" height="24" viewBox="0 0 32 24" fill="none" xmlns="http://www.w3.org/2000/svg">
<path d="M5.33341 20C4.60008 20 3.9723 19.8042 3.45008 19.4125C2.92786 19.0208 2.66675 18.55 2.66675 18V6C2.66675 5.45 2.92786 4.97917 3.45008 4.5875C3.9723 4.19583 4.60008 4 5.33341 4H26.6667C27.4001 4 28.0279 4.19583 28.5501 4.5875C29.0723 4.97917 29.3334 5.45 29.3334 6V18C29.3334 18.55 29.0723 19.0208 28.5501 19.4125C28.0279 19.8042 27.4001 20 26.6667 20H5.33341ZM16.0001 13L5.33341 8V18H26.6667V8L16.0001 13ZM16.0001 11L26.6667 6H5.33341L16.0001 11ZM5.33341 8V6V18V8Z" fill="white"/>
</svg>
